<svg xmlns="http://www.w3.org/2000/svg" xmlns:xlink="http://www.w3.org/1999/xlink" width="500" zoomAndPan="magnify" viewBox="0 0 375 187.499995" height="250" preserveAspectRatio="xMidYMid meet" version="1.0"><defs><g/><clipPath id="id1"><path d="M 121.207031 93.507812 L 148.679688 93.507812 L 148.679688 120.964844 L 121.207031 120.964844 Z M 121.207031 93.507812 " clip-rule="nonzero"/></clipPath><clipPath id="id2"><path d="M 108.101562 72 L 161.960938 72 L 161.960938 130.902344 L 108.101562 130.902344 Z M 108.101562 72 " clip-rule="nonzero"/></clipPath><clipPath id="id3"><path d="M 110 56.101562 L 161 56.101562 L 161 70 L 110 70 Z M 110 56.101562 " clip-rule="nonzero"/></clipPath><clipPath id="id4"><path d="M 108.101562 90 L 161.960938 90 L 161.960938 130.902344 L 108.101562 130.902344 Z M 108.101562 90 " clip-rule="nonzero"/></clipPath><clipPath id="id5"><path d="M 108.101562 83 L 141 83 L 141 121 L 108.101562 121 Z M 108.101562 83 " clip-rule="nonzero"/></clipPath><clipPath id="id6"><path d="M 116.175781 97.273438 L 130.390625 97.273438 L 130.390625 111.820312 L 116.175781 111.820312 Z M 116.175781 97.273438 " clip-rule="nonzero"/></clipPath><clipPath id="id7"><path d="M 115.101562 90.921875 L 132.730469 90.921875 L 132.730469 103.832031 L 115.101562 103.832031 Z M 115.101562 90.921875 " clip-rule="nonzero"/></clipPath></defs><g clip-path="url(#id1)"><path fill="#465152" d="M 148.679688 107.234375 C 148.679688 107.6875 148.65625 108.132812 148.613281 108.582031 C 148.566406 109.027344 148.5 109.472656 148.414062 109.914062 C 148.328125 110.355469 148.21875 110.792969 148.085938 111.21875 C 147.957031 111.652344 147.804688 112.074219 147.632812 112.488281 C 147.460938 112.902344 147.269531 113.3125 147.054688 113.707031 C 146.84375 114.105469 146.613281 114.488281 146.363281 114.863281 C 146.113281 115.238281 145.847656 115.597656 145.5625 115.945312 C 145.273438 116.292969 144.972656 116.625 144.65625 116.941406 C 144.335938 117.261719 144.003906 117.5625 143.65625 117.847656 C 143.308594 118.132812 142.949219 118.398438 142.574219 118.648438 C 142.199219 118.898438 141.816406 119.132812 141.417969 119.34375 C 141.019531 119.554688 140.617188 119.746094 140.199219 119.917969 C 139.785156 120.089844 139.363281 120.242188 138.929688 120.371094 C 138.5 120.503906 138.0625 120.613281 137.625 120.699219 C 137.179688 120.789062 136.738281 120.855469 136.289062 120.898438 C 135.84375 120.941406 135.394531 120.964844 134.945312 120.964844 C 134.492188 120.964844 134.042969 120.941406 133.597656 120.898438 C 133.148438 120.855469 132.707031 120.789062 132.261719 120.699219 C 131.820312 120.613281 131.386719 120.503906 130.957031 120.371094 C 130.523438 120.242188 130.101562 120.089844 129.6875 119.917969 C 129.273438 119.746094 128.867188 119.554688 128.46875 119.34375 C 128.070312 119.132812 127.6875 118.898438 127.3125 118.648438 C 126.9375 118.398438 126.578125 118.132812 126.226562 117.847656 C 125.882812 117.5625 125.550781 117.261719 125.230469 116.941406 C 124.914062 116.625 124.613281 116.292969 124.324219 115.945312 C 124.039062 115.597656 123.773438 115.238281 123.523438 114.863281 C 123.273438 114.488281 123.042969 114.105469 122.828125 113.707031 C 122.617188 113.3125 122.425781 112.902344 122.253906 112.488281 C 122.082031 112.074219 121.929688 111.652344 121.800781 111.21875 C 121.667969 110.792969 121.558594 110.355469 121.46875 109.914062 C 121.382812 109.472656 121.320312 109.027344 121.273438 108.582031 C 121.230469 108.132812 121.207031 107.6875 121.207031 107.234375 C 121.207031 106.785156 121.230469 106.335938 121.273438 105.890625 C 121.320312 105.441406 121.382812 105 121.46875 104.554688 C 121.558594 104.117188 121.667969 103.679688 121.800781 103.25 C 121.929688 102.820312 122.082031 102.398438 122.253906 101.984375 C 122.425781 101.566406 122.617188 101.160156 122.828125 100.765625 C 123.042969 100.367188 123.273438 99.984375 123.523438 99.609375 C 123.773438 99.234375 124.039062 98.875 124.324219 98.527344 C 124.613281 98.179688 124.914062 97.847656 125.230469 97.527344 C 125.550781 97.210938 125.882812 96.910156 126.226562 96.625 C 126.578125 96.339844 126.9375 96.070312 127.3125 95.820312 C 127.6875 95.570312 128.070312 95.339844 128.46875 95.128906 C 128.867188 94.914062 129.273438 94.726562 129.6875 94.554688 C 130.101562 94.378906 130.523438 94.226562 130.957031 94.097656 C 131.386719 93.96875 131.820312 93.859375 132.261719 93.773438 C 132.707031 93.683594 133.148438 93.617188 133.597656 93.574219 C 134.042969 93.53125 134.492188 93.507812 134.945312 93.507812 C 135.394531 93.507812 135.84375 93.53125 136.289062 93.574219 C 136.738281 93.617188 137.179688 93.683594 137.625 93.773438 C 138.0625 93.859375 138.5 93.96875 138.929688 94.097656 C 139.363281 94.226562 139.785156 94.378906 140.199219 94.554688 C 140.617188 94.726562 141.019531 94.914062 141.417969 95.128906 C 141.816406 95.339844 142.199219 95.570312 142.574219 95.820312 C 142.949219 96.070312 143.308594 96.339844 143.65625 96.625 C 144.003906 96.910156 144.335938 97.210938 144.65625 97.527344 C 144.972656 97.847656 145.273438 98.179688 145.5625 98.527344 C 145.847656 98.875 146.113281 99.234375 146.363281 99.609375 C 146.613281 99.984375 146.84375 100.367188 147.054688 100.765625 C 147.269531 101.160156 147.460938 101.566406 147.632812 101.984375 C 147.804688 102.398438 147.957031 102.820312 148.085938 103.25 C 148.21875 103.679688 148.328125 104.117188 148.414062 104.554688 C 148.5 105 148.566406 105.441406 148.613281 105.890625 C 148.65625 106.335938 148.679688 106.785156 148.679688 107.234375 Z M 148.679688 107.234375 " fill-opacity="1" fill-rule="nonzero"/></g><path fill="#ced8da" d="M 158.730469 80.253906 L 154.886719 74.542969 L 115.164062 74.542969 L 111.320312 80.253906 C 110.460938 81.550781 110.03125 82.976562 110.039062 84.53125 L 110.039062 121.296875 C 110.039062 121.800781 110.089844 122.300781 110.1875 122.796875 C 110.285156 123.289062 110.433594 123.773438 110.625 124.238281 C 110.816406 124.703125 111.054688 125.148438 111.335938 125.566406 C 111.613281 125.984375 111.933594 126.375 112.289062 126.730469 C 112.648438 127.085938 113.035156 127.40625 113.457031 127.6875 C 113.875 127.964844 114.320312 128.203125 114.785156 128.394531 C 115.25 128.589844 115.730469 128.734375 116.226562 128.832031 C 116.722656 128.929688 117.222656 128.980469 117.726562 128.980469 L 152.320312 128.980469 C 152.828125 128.980469 153.324219 128.929688 153.820312 128.832031 C 154.316406 128.734375 154.796875 128.589844 155.265625 128.394531 C 155.730469 128.203125 156.175781 127.964844 156.59375 127.6875 C 157.015625 127.40625 157.402344 127.085938 157.757812 126.730469 C 158.117188 126.375 158.433594 125.984375 158.714844 125.566406 C 158.996094 125.148438 159.230469 124.703125 159.425781 124.238281 C 159.617188 123.773438 159.765625 123.289062 159.863281 122.796875 C 159.960938 122.300781 160.011719 121.800781 160.011719 121.296875 L 160.011719 84.542969 C 160.019531 82.984375 159.589844 81.550781 158.730469 80.253906 Z M 158.730469 80.253906 " fill-opacity="1" fill-rule="nonzero"/><g clip-path="url(#id2)"><path stroke-linecap="round" transform="matrix(0.546691, 0, 0, 0.546394, 108.117094, 56.100395)" fill="none" stroke-linejoin="round" d="M 92.581347 44.205324 L 85.550408 33.753268 L 12.890225 33.753268 L 5.859286 44.205324 C 4.287328 46.578841 3.50135 49.18828 3.51564 52.033642 L 3.51564 119.32143 C 3.51564 120.24367 3.608528 121.158761 3.78716 122.066703 C 3.965792 122.967496 4.237312 123.85399 4.58743 124.704739 C 4.937547 125.555488 5.373408 126.370491 5.887867 127.13545 C 6.395181 127.900409 6.981093 128.615323 7.631312 129.265896 C 8.288676 129.916469 8.996057 130.502699 9.767745 131.017437 C 10.532289 131.525027 11.346849 131.961125 12.197135 132.311433 C 13.047421 132.668891 13.926289 132.933409 14.833737 133.112138 C 15.741186 133.290867 16.655779 133.383806 17.577518 133.383806 L 80.85597 133.383806 C 81.784854 133.383806 82.692303 133.290867 83.599751 133.112138 C 84.5072 132.933409 85.386067 132.668891 86.243499 132.311433 C 87.093785 131.961125 87.908345 131.525027 88.672888 131.017437 C 89.444577 130.502699 90.151958 129.916469 90.802177 129.265896 C 91.459541 128.615323 92.038307 127.900409 92.552766 127.13545 C 93.067225 126.370491 93.495941 125.555488 93.853204 124.704739 C 94.203322 123.85399 94.474842 122.967496 94.653474 122.066703 C 94.832105 121.158761 94.924994 120.24367 94.924994 119.32143 L 94.924994 52.055089 C 94.939284 49.202579 94.153305 46.578841 92.581347 44.205324 Z M 92.581347 44.205324 " stroke="#5f363a" stroke-width="7.031" stroke-opacity="1" stroke-miterlimit="4"/></g><path stroke-linecap="round" transform="matrix(0.546691, 0, 0, 0.546394, 108.117094, 56.100395)" fill-opacity="1" fill="#ced8da" fill-rule="nonzero" stroke-linejoin="round" d="M 12.847354 20.627431 L 85.643297 20.627431 L 85.643297 33.753268 L 12.847354 33.753268 Z M 12.847354 20.627431 " stroke="#5f363a" stroke-width="7.031" stroke-opacity="1" stroke-miterlimit="4"/><path fill="#fffaf0" d="M 155.539062 67.355469 L 114.535156 67.355469 C 114.367188 67.355469 114.203125 67.34375 114.035156 67.308594 C 113.871094 67.277344 113.710938 67.226562 113.554688 67.164062 C 113.402344 67.097656 113.253906 67.019531 113.113281 66.925781 C 112.972656 66.832031 112.84375 66.726562 112.722656 66.609375 C 112.605469 66.488281 112.5 66.359375 112.40625 66.21875 C 112.3125 66.078125 112.234375 65.929688 112.167969 65.777344 C 112.105469 65.621094 112.054688 65.460938 112.023438 65.296875 C 111.992188 65.128906 111.972656 64.964844 111.972656 64.796875 L 111.972656 60.582031 C 111.972656 60.417969 111.992188 60.246094 112.023438 60.082031 C 112.054688 59.917969 112.105469 59.757812 112.167969 59.601562 C 112.234375 59.445312 112.3125 59.300781 112.40625 59.160156 C 112.5 59.019531 112.605469 58.890625 112.722656 58.773438 C 112.84375 58.652344 112.972656 58.546875 113.113281 58.453125 C 113.253906 58.359375 113.402344 58.28125 113.554688 58.21875 C 113.710938 58.152344 113.871094 58.105469 114.035156 58.070312 C 114.203125 58.039062 114.367188 58.019531 114.535156 58.019531 L 155.539062 58.019531 C 155.707031 58.019531 155.875 58.039062 156.039062 58.070312 C 156.203125 58.105469 156.363281 58.152344 156.519531 58.21875 C 156.675781 58.28125 156.820312 58.359375 156.960938 58.453125 C 157.101562 58.546875 157.230469 58.652344 157.351562 58.773438 C 157.46875 58.890625 157.574219 59.019531 157.667969 59.160156 C 157.761719 59.300781 157.84375 59.445312 157.90625 59.601562 C 157.96875 59.757812 158.019531 59.917969 158.050781 60.082031 C 158.082031 60.246094 158.101562 60.417969 158.101562 60.582031 L 158.101562 64.796875 C 158.101562 64.964844 158.082031 65.128906 158.050781 65.296875 C 158.019531 65.460938 157.96875 65.621094 157.90625 65.777344 C 157.84375 65.929688 157.761719 66.078125 157.667969 66.21875 C 157.574219 66.359375 157.46875 66.488281 157.351562 66.609375 C 157.230469 66.726562 157.101562 66.832031 156.960938 66.925781 C 156.820312 67.019531 156.675781 67.097656 156.519531 67.164062 C 156.363281 67.226562 156.203125 67.277344 156.039062 67.308594 C 155.875 67.34375 155.707031 67.355469 155.539062 67.355469 Z M 155.539062 67.355469 " fill-opacity="1" fill-rule="nonzero"/><g clip-path="url(#id3)"><path stroke-linecap="round" transform="matrix(0.546691, 0, 0, 0.546394, 108.117094, 56.100395)" fill="none" stroke-linejoin="round" d="M 86.743667 20.598834 L 11.739838 20.598834 C 11.432592 20.598834 11.132491 20.577387 10.825244 20.513045 C 10.525143 20.455851 10.232188 20.362912 9.946377 20.248526 C 9.667712 20.126991 9.396192 19.984008 9.138962 19.812428 C 8.881733 19.640848 8.645939 19.447821 8.424436 19.233347 C 8.210078 19.011723 8.017156 18.775801 7.84567 18.518432 C 7.674183 18.261063 7.531278 17.989395 7.409809 17.710578 C 7.295484 17.424612 7.202596 17.131497 7.145434 16.831233 C 7.088272 16.52382 7.052545 16.223555 7.052545 15.916142 L 7.052545 8.20221 C 7.052545 7.901946 7.088272 7.587384 7.145434 7.287119 C 7.202596 6.986855 7.295484 6.69374 7.409809 6.407774 C 7.531278 6.121808 7.674183 5.85729 7.84567 5.59992 C 8.017156 5.342551 8.210078 5.106629 8.424436 4.892154 C 8.645939 4.670531 8.881733 4.477504 9.138962 4.305924 C 9.396192 4.134345 9.667712 3.991362 9.946377 3.876975 C 10.232188 3.75544 10.525143 3.66965 10.825244 3.605308 C 11.132491 3.548115 11.432592 3.512369 11.739838 3.512369 L 86.743667 3.512369 C 87.050913 3.512369 87.35816 3.548115 87.658261 3.605308 C 87.958362 3.66965 88.251318 3.75544 88.537128 3.876975 C 88.822939 3.991362 89.087313 4.134345 89.344543 4.305924 C 89.601772 4.477504 89.837566 4.670531 90.059069 4.892154 C 90.273427 5.106629 90.466349 5.342551 90.637836 5.59992 C 90.809322 5.85729 90.959372 6.121808 91.073697 6.407774 C 91.188021 6.69374 91.280909 6.986855 91.338071 7.287119 C 91.395234 7.587384 91.43096 7.901946 91.43096 8.20221 L 91.43096 15.916142 C 91.43096 16.223555 91.395234 16.52382 91.338071 16.831233 C 91.280909 17.131497 91.188021 17.424612 91.073697 17.710578 C 90.959372 17.989395 90.809322 18.261063 90.637836 18.518432 C 90.466349 18.775801 90.273427 19.011723 90.059069 19.233347 C 89.837566 19.447821 89.601772 19.640848 89.344543 19.812428 C 89.087313 19.984008 88.822939 20.126991 88.537128 20.248526 C 88.251318 20.362912 87.958362 20.455851 87.658261 20.513045 C 87.35816 20.577387 87.050913 20.598834 86.743667 20.598834 Z M 86.743667 20.598834 " stroke="#5f363a" stroke-width="7.031" stroke-opacity="1" stroke-miterlimit="4"/></g><path fill="#ec6d5e" d="M 110.050781 92.074219 L 160.023438 92.074219 L 160.023438 121.296875 C 160.023438 121.800781 159.972656 122.300781 159.875 122.796875 C 159.777344 123.289062 159.628906 123.773438 159.4375 124.238281 C 159.246094 124.703125 159.007812 125.148438 158.726562 125.566406 C 158.445312 125.984375 158.128906 126.375 157.773438 126.730469 C 157.414062 127.085938 157.027344 127.40625 156.605469 127.6875 C 156.1875 127.964844 155.742188 128.203125 155.277344 128.394531 C 154.808594 128.589844 154.328125 128.734375 153.835938 128.832031 C 153.339844 128.929688 152.839844 128.980469 152.335938 128.980469 L 117.738281 128.980469 C 117.234375 128.980469 116.734375 128.929688 116.242188 128.832031 C 115.746094 128.734375 115.265625 128.589844 114.796875 128.394531 C 114.332031 128.203125 113.886719 127.964844 113.46875 127.6875 C 113.046875 127.40625 112.660156 127.085938 112.304688 126.730469 C 111.945312 126.375 111.628906 125.984375 111.347656 125.566406 C 111.066406 125.148438 110.828125 124.703125 110.636719 124.238281 C 110.445312 123.773438 110.296875 123.289062 110.199219 122.796875 C 110.101562 122.300781 110.050781 121.800781 110.050781 121.296875 Z M 110.050781 92.074219 " fill-opacity="1" fill-rule="nonzero"/><g clip-path="url(#id4)"><path stroke-linecap="round" transform="matrix(0.546691, 0, 0, 0.546394, 108.117094, 56.100395)" fill="none" stroke-linejoin="round" d="M 3.537076 65.838648 L 94.946429 65.838648 L 94.946429 119.32143 C 94.946429 120.24367 94.853541 121.158761 94.674909 122.066703 C 94.496278 122.967496 94.224758 123.85399 93.87464 124.704739 C 93.524522 125.555488 93.088661 126.370491 92.574202 127.13545 C 92.059743 127.900409 91.480977 128.615323 90.830758 129.265896 C 90.173394 129.916469 89.466012 130.502699 88.694324 131.017437 C 87.929781 131.525027 87.115221 131.961125 86.264934 132.311433 C 85.407503 132.668891 84.528636 132.933409 83.628332 133.112138 C 82.720884 133.290867 81.80629 133.383806 80.884551 133.383806 L 17.598954 133.383806 C 16.677215 133.383806 15.762621 133.290867 14.862318 133.112138 C 13.95487 132.933409 13.076002 132.668891 12.218571 132.311433 C 11.368284 131.961125 10.553724 131.525027 9.789181 131.017437 C 9.017493 130.502699 8.310112 129.916469 7.659893 129.265896 C 7.002529 128.615323 6.423762 127.900409 5.909303 127.13545 C 5.394844 126.370491 4.958983 125.555488 4.608865 124.704739 C 4.258747 123.85399 3.987227 122.967496 3.808596 122.066703 C 3.629964 121.158761 3.537076 120.24367 3.537076 119.32143 Z M 3.537076 65.838648 " stroke="#5f363a" stroke-width="7.031" stroke-opacity="1" stroke-miterlimit="4"/></g><path fill="#f9c290" d="M 136.320312 118.480469 L 110.050781 118.480469 L 110.050781 85.042969 L 136.320312 85.042969 C 136.488281 85.042969 136.652344 85.058594 136.820312 85.089844 C 136.984375 85.125 137.144531 85.171875 137.300781 85.238281 C 137.453125 85.300781 137.601562 85.382812 137.742188 85.476562 C 137.882812 85.566406 138.011719 85.675781 138.132812 85.792969 C 138.25 85.910156 138.355469 86.042969 138.449219 86.183594 C 138.542969 86.320312 138.621094 86.46875 138.6875 86.625 C 138.75 86.78125 138.800781 86.941406 138.832031 87.105469 C 138.863281 87.269531 138.882812 87.4375 138.882812 87.601562 L 138.882812 115.917969 C 138.882812 116.085938 138.863281 116.253906 138.832031 116.417969 C 138.800781 116.582031 138.75 116.742188 138.6875 116.898438 C 138.621094 117.054688 138.542969 117.199219 138.449219 117.339844 C 138.355469 117.480469 138.25 117.609375 138.132812 117.730469 C 138.011719 117.847656 137.882812 117.953125 137.742188 118.046875 C 137.601562 118.140625 137.453125 118.21875 137.300781 118.285156 C 137.144531 118.347656 136.984375 118.398438 136.820312 118.429688 C 136.652344 118.464844 136.488281 118.480469 136.320312 118.480469 Z M 136.320312 118.480469 " fill-opacity="1" fill-rule="nonzero"/><g clip-path="url(#id5)"><path stroke-linecap="round" transform="matrix(0.546691, 0, 0, 0.546394, 108.117094, 56.100395)" fill="none" stroke-linejoin="round" d="M 51.588972 114.166894 L 3.537076 114.166894 L 3.537076 52.97018 L 51.588972 52.97018 C 51.896218 52.97018 52.196319 52.998777 52.503565 53.05597 C 52.803666 53.120312 53.096622 53.206102 53.382433 53.327638 C 53.661098 53.442024 53.932618 53.592156 54.189847 53.763736 C 54.447077 53.928166 54.682871 54.128342 54.904374 54.342817 C 55.118732 54.557291 55.311654 54.800362 55.48314 55.057732 C 55.654626 55.307952 55.797532 55.579619 55.919001 55.865585 C 56.033325 56.151551 56.126214 56.444666 56.183376 56.744931 C 56.240538 57.045195 56.276264 57.352608 56.276264 57.652873 L 56.276264 109.477052 C 56.276264 109.784466 56.240538 110.091879 56.183376 110.392143 C 56.126214 110.692407 56.033325 110.985523 55.919001 111.271488 C 55.797532 111.557454 55.654626 111.821973 55.48314 112.079342 C 55.311654 112.336712 55.118732 112.572634 54.904374 112.794257 C 54.682871 113.008732 54.447077 113.201759 54.189847 113.373338 C 53.932618 113.544918 53.661098 113.687901 53.382433 113.809436 C 53.096622 113.923823 52.803666 114.016762 52.503565 114.073955 C 52.196319 114.138297 51.896218 114.166894 51.588972 114.166894 Z M 51.588972 114.166894 " stroke="#5f363a" stroke-width="7.031" stroke-opacity="1" stroke-miterlimit="4"/></g><g clip-path="url(#id6)"><path fill="#ec6d5e" d="M 124.726562 97.914062 C 119.601562 96.722656 115.925781 98.308594 116.523438 102.875 C 117.121094 107.441406 118.925781 111.683594 121.058594 111.75 C 123.195312 111.820312 130.332031 108.816406 130.332031 103.007812 C 130.332031 97.195312 126.128906 98.242188 124.726562 97.914062 Z M 124.726562 97.914062 " fill-opacity="1" fill-rule="nonzero"/></g><g clip-path="url(#id7)"><path fill="#87cb6b" d="M 121.167969 99.84375 C 121.167969 99.84375 117.5 100.527344 115.121094 96.824219 C 115.121094 96.824219 117.976562 94.179688 120.875 95.980469 C 120.875 95.980469 118.632812 94.097656 119.753906 90.921875 C 119.753906 90.921875 122.699219 91.414062 123.957031 95.042969 C 123.957031 95.042969 125.328125 93.136719 126.179688 93.457031 C 127.039062 93.777344 126.824219 96.296875 126.296875 96.800781 C 126.296875 96.800781 131.046875 95.902344 132.710938 99.515625 C 132.710938 99.515625 129.027344 103.132812 124.835938 100.492188 C 124.835938 100.492188 123.277344 104.300781 121.671875 103.605469 C 120.066406 102.910156 121.167969 99.84375 121.167969 99.84375 Z M 121.167969 99.84375 " fill-opacity="1" fill-rule="nonzero"/></g><g fill="#000000" fill-opacity="1"><g transform="translate(183.764809, 98.481718)"><g><path d="M 2.953125 -17.9375 L 6.59375 -17.9375 L 6.59375 1.234375 C 6.59375 2.878906 6.347656 4.15625 5.859375 5.0625 C 5.367188 5.976562 4.722656 6.625 3.921875 7 C 3.128906 7.375 2.234375 7.523438 1.234375 7.453125 C 0.234375 7.378906 -0.773438 7.164062 -1.796875 6.8125 L -1.125 4.125 C -0.351562 4.21875 0.285156 4.265625 0.796875 4.265625 C 1.316406 4.265625 1.738281 4.175781 2.0625 4 C 2.382812 3.832031 2.613281 3.570312 2.75 3.21875 C 2.882812 2.875 2.953125 2.398438 2.953125 1.796875 Z M 4.71875 -26.515625 C 5.363281 -26.515625 5.914062 -26.289062 6.375 -25.84375 C 6.84375 -25.394531 7.078125 -24.84375 7.078125 -24.1875 C 7.078125 -23.539062 6.84375 -22.984375 6.375 -22.515625 C 5.914062 -22.054688 5.363281 -21.828125 4.71875 -21.828125 C 4.070312 -21.828125 3.519531 -22.054688 3.0625 -22.515625 C 2.613281 -22.984375 2.390625 -23.539062 2.390625 -24.1875 C 2.390625 -24.84375 2.613281 -25.394531 3.0625 -25.84375 C 3.519531 -26.289062 4.070312 -26.515625 4.71875 -26.515625 Z M 4.71875 -26.515625 "/></g></g></g><g fill="#000000" fill-opacity="1"><g transform="translate(192.678334, 98.481718)"><g><path d="M 19.09375 -17.9375 L 19.09375 0 L 16.03125 0 L 15.46875 -2.0625 C 14.84375 -1.238281 14.039062 -0.613281 13.0625 -0.1875 C 12.09375 0.238281 11.109375 0.453125 10.109375 0.453125 C 8.859375 0.453125 7.691406 0.207031 6.609375 -0.28125 C 5.523438 -0.769531 4.578125 -1.4375 3.765625 -2.28125 C 2.953125 -3.132812 2.304688 -4.132812 1.828125 -5.28125 C 1.359375 -6.425781 1.125 -7.648438 1.125 -8.953125 C 1.125 -10.253906 1.359375 -11.476562 1.828125 -12.625 C 2.304688 -13.769531 2.953125 -14.765625 3.765625 -15.609375 C 4.578125 -16.460938 5.523438 -17.132812 6.609375 -17.625 C 7.691406 -18.113281 8.859375 -18.359375 10.109375 -18.359375 C 11.109375 -18.359375 12.066406 -18.160156 12.984375 -17.765625 C 13.910156 -17.378906 14.738281 -16.773438 15.46875 -15.953125 L 16.03125 -17.9375 Z M 10.109375 -2.765625 C 10.835938 -2.765625 11.523438 -2.925781 12.171875 -3.25 C 12.816406 -3.582031 13.375 -4.03125 13.84375 -4.59375 C 14.320312 -5.15625 14.695312 -5.804688 14.96875 -6.546875 C 15.25 -7.296875 15.390625 -8.097656 15.390625 -8.953125 C 15.390625 -9.796875 15.25 -10.59375 14.96875 -11.34375 C 14.695312 -12.09375 14.320312 -12.75 13.84375 -13.3125 C 13.375 -13.875 12.816406 -14.316406 12.171875 -14.640625 C 11.523438 -14.960938 10.835938 -15.125 10.109375 -15.125 C 9.390625 -15.125 8.703125 -14.960938 8.046875 -14.640625 C 7.398438 -14.316406 6.835938 -13.875 6.359375 -13.3125 C 5.890625 -12.75 5.515625 -12.09375 5.234375 -11.34375 C 4.960938 -10.59375 4.828125 -9.796875 4.828125 -8.953125 C 4.828125 -8.097656 4.960938 -7.296875 5.234375 -6.546875 C 5.515625 -5.804688 5.890625 -5.15625 6.359375 -4.59375 C 6.835938 -4.03125 7.398438 -3.582031 8.046875 -3.25 C 8.703125 -2.925781 9.390625 -2.765625 10.109375 -2.765625 Z M 10.109375 -2.765625 "/></g></g></g><g fill="#000000" fill-opacity="1"><g transform="translate(213.389174, 98.481718)"><g><path d="M 5.734375 0 L 2.09375 0 L 2.09375 -17.9375 L 4.984375 -17.9375 L 5.734375 -16.40625 C 6.179688 -16.925781 6.71875 -17.378906 7.34375 -17.765625 C 7.96875 -18.160156 8.726562 -18.359375 9.625 -18.359375 C 9.976562 -18.359375 10.367188 -18.3125 10.796875 -18.21875 C 11.234375 -18.132812 11.679688 -17.984375 12.140625 -17.765625 C 12.609375 -17.554688 13.054688 -17.269531 13.484375 -16.90625 C 13.910156 -16.539062 14.269531 -16.070312 14.5625 -15.5 C 14.988281 -16.28125 15.632812 -16.953125 16.5 -17.515625 C 17.363281 -18.078125 18.28125 -18.359375 19.25 -18.359375 C 19.894531 -18.359375 20.578125 -18.253906 21.296875 -18.046875 C 22.023438 -17.847656 22.703125 -17.472656 23.328125 -16.921875 C 23.953125 -16.378906 24.460938 -15.617188 24.859375 -14.640625 C 25.265625 -13.671875 25.46875 -12.410156 25.46875 -10.859375 L 25.46875 0 L 22.0625 0 L 22.0625 -10.90625 C 22.0625 -12.445312 21.742188 -13.523438 21.109375 -14.140625 C 20.472656 -14.753906 19.628906 -15.0625 18.578125 -15.0625 C 17.773438 -15.0625 17.070312 -14.722656 16.46875 -14.046875 C 15.875 -13.367188 15.578125 -12.304688 15.578125 -10.859375 L 15.578125 0 L 12.171875 0 L 12.171875 -10.90625 C 12.171875 -12.445312 11.851562 -13.523438 11.21875 -14.140625 C 10.582031 -14.753906 9.738281 -15.0625 8.6875 -15.0625 C 7.9375 -15.0625 7.28125 -14.769531 6.71875 -14.1875 C 6.15625 -13.613281 5.828125 -12.71875 5.734375 -11.5 Z M 5.734375 0 "/></g></g></g><g fill="#000000" fill-opacity="1"><g transform="translate(172.166959, 120.353602)"><g><path d="M 2.046875 -5.921875 L 1.296875 -5.921875 L 1.296875 0.625 L 2.046875 0.625 L 2.046875 1.21875 L 0.578125 1.21875 L 0.578125 -6.53125 L 2.046875 -6.53125 Z M 2.046875 -5.921875 "/></g></g></g><g fill="#000000" fill-opacity="1"><g transform="translate(174.896684, 120.353602)"><g/></g></g><g fill="#000000" fill-opacity="1"><g transform="translate(177.485339, 120.353602)"><g><path d="M 0.515625 -2.3125 C 0.515625 -2.90625 0.59375 -3.472656 0.75 -4.015625 C 0.914062 -4.554688 1.15625 -5.050781 1.46875 -5.5 C 1.78125 -5.945312 2.101562 -6.257812 2.4375 -6.4375 L 2.59375 -5.96875 C 2.207031 -5.675781 1.890625 -5.226562 1.640625 -4.625 C 1.398438 -4.019531 1.269531 -3.347656 1.25 -2.609375 L 1.25 -2.265625 C 1.25 -1.253906 1.429688 -0.378906 1.796875 0.359375 C 2.023438 0.804688 2.289062 1.15625 2.59375 1.40625 L 2.4375 1.84375 C 2.09375 1.644531 1.765625 1.320312 1.453125 0.875 C 0.828125 -0.0195312 0.515625 -1.082031 0.515625 -2.3125 Z M 0.515625 -2.3125 "/></g></g></g><g fill="#000000" fill-opacity="1"><g transform="translate(180.830291, 120.353602)"><g><path d="M 3.0625 -5.703125 L 3.8125 -5.703125 L 3.8125 -1.671875 C 3.8125 -1.117188 3.644531 -0.6875 3.3125 -0.375 C 2.988281 -0.0703125 2.554688 0.078125 2.015625 0.078125 C 1.441406 0.078125 0.992188 -0.0664062 0.671875 -0.359375 C 0.359375 -0.648438 0.203125 -1.054688 0.203125 -1.578125 L 0.953125 -1.578125 C 0.953125 -1.253906 1.039062 -1 1.21875 -0.8125 C 1.40625 -0.625 1.671875 -0.53125 2.015625 -0.53125 C 2.316406 -0.53125 2.5625 -0.628906 2.75 -0.828125 C 2.945312 -1.023438 3.050781 -1.300781 3.0625 -1.65625 Z M 3.0625 -5.703125 "/></g></g></g><g fill="#000000" fill-opacity="1"><g transform="translate(185.860259, 120.353602)"><g><path d="M 2.21875 -2.28125 C 2.21875 -1.695312 2.140625 -1.132812 1.984375 -0.59375 C 1.835938 -0.0625 1.601562 0.425781 1.28125 0.875 C 0.96875 1.332031 0.640625 1.65625 0.296875 1.84375 L 0.15625 1.40625 C 0.550781 1.09375 0.867188 0.613281 1.109375 -0.03125 C 1.359375 -0.6875 1.488281 -1.410156 1.5 -2.203125 L 1.5 -2.328125 C 1.5 -2.878906 1.441406 -3.390625 1.328125 -3.859375 C 1.210938 -4.328125 1.050781 -4.75 0.84375 -5.125 C 0.632812 -5.5 0.40625 -5.789062 0.15625 -6 L 0.296875 -6.4375 C 0.640625 -6.25 0.96875 -5.929688 1.28125 -5.484375 C 1.59375 -5.035156 1.828125 -4.539062 1.984375 -4 C 2.140625 -3.46875 2.21875 -2.894531 2.21875 -2.28125 Z M 2.21875 -2.28125 "/></g></g></g><g fill="#000000" fill-opacity="1"><g transform="translate(189.252235, 120.353602)"><g><path d="M 2.34375 -2.546875 C 1.695312 -2.734375 1.226562 -2.960938 0.9375 -3.234375 C 0.644531 -3.503906 0.5 -3.835938 0.5 -4.234375 C 0.5 -4.679688 0.675781 -5.050781 1.03125 -5.34375 C 1.394531 -5.632812 1.863281 -5.78125 2.4375 -5.78125 C 2.832031 -5.78125 3.179688 -5.703125 3.484375 -5.546875 C 3.785156 -5.398438 4.019531 -5.191406 4.1875 -4.921875 C 4.363281 -4.660156 4.453125 -4.375 4.453125 -4.0625 L 3.6875 -4.0625 C 3.6875 -4.40625 3.578125 -4.675781 3.359375 -4.875 C 3.140625 -5.070312 2.832031 -5.171875 2.4375 -5.171875 C 2.0625 -5.171875 1.769531 -5.085938 1.5625 -4.921875 C 1.351562 -4.753906 1.25 -4.53125 1.25 -4.25 C 1.25 -4.007812 1.347656 -3.804688 1.546875 -3.640625 C 1.742188 -3.484375 2.078125 -3.335938 2.546875 -3.203125 C 3.023438 -3.078125 3.398438 -2.929688 3.671875 -2.765625 C 3.941406 -2.609375 4.140625 -2.421875 4.265625 -2.203125 C 4.398438 -1.992188 4.46875 -1.742188 4.46875 -1.453125 C 4.46875 -0.984375 4.285156 -0.609375 3.921875 -0.328125 C 3.554688 -0.0546875 3.070312 0.078125 2.46875 0.078125 C 2.082031 0.078125 1.71875 0.00390625 1.375 -0.140625 C 1.03125 -0.296875 0.765625 -0.503906 0.578125 -0.765625 C 0.398438 -1.023438 0.3125 -1.320312 0.3125 -1.65625 L 1.078125 -1.65625 C 1.078125 -1.3125 1.203125 -1.035156 1.453125 -0.828125 C 1.703125 -0.628906 2.039062 -0.53125 2.46875 -0.53125 C 2.875 -0.53125 3.179688 -0.613281 3.390625 -0.78125 C 3.597656 -0.945312 3.703125 -1.164062 3.703125 -1.4375 C 3.703125 -1.71875 3.601562 -1.9375 3.40625 -2.09375 C 3.21875 -2.25 2.863281 -2.398438 2.34375 -2.546875 Z M 2.34375 -2.546875 "/></g></g></g><g fill="#000000" fill-opacity="1"><g transform="translate(194.615287, 120.353602)"><g><path d="M 5.0625 -2.671875 C 5.0625 -2.109375 4.960938 -1.617188 4.765625 -1.203125 C 4.578125 -0.785156 4.3125 -0.46875 3.96875 -0.25 C 3.625 -0.03125 3.222656 0.078125 2.765625 0.078125 C 2.316406 0.078125 1.914062 -0.03125 1.5625 -0.25 C 1.21875 -0.46875 0.945312 -0.78125 0.75 -1.1875 C 0.5625 -1.601562 0.46875 -2.082031 0.46875 -2.625 L 0.46875 -3.03125 C 0.46875 -3.582031 0.5625 -4.066406 0.75 -4.484375 C 0.9375 -4.910156 1.203125 -5.234375 1.546875 -5.453125 C 1.898438 -5.671875 2.300781 -5.78125 2.75 -5.78125 C 3.207031 -5.78125 3.609375 -5.671875 3.953125 -5.453125 C 4.304688 -5.234375 4.578125 -4.910156 4.765625 -4.484375 C 4.960938 -4.066406 5.0625 -3.582031 5.0625 -3.03125 Z M 4.3125 -3.046875 C 4.3125 -3.722656 4.171875 -4.238281 3.890625 -4.59375 C 3.617188 -4.957031 3.238281 -5.140625 2.75 -5.140625 C 2.28125 -5.140625 1.90625 -4.957031 1.625 -4.59375 C 1.351562 -4.238281 1.21875 -3.738281 1.21875 -3.09375 L 1.21875 -2.671875 C 1.21875 -2.015625 1.351562 -1.5 1.625 -1.125 C 1.90625 -0.75 2.285156 -0.5625 2.765625 -0.5625 C 3.253906 -0.5625 3.628906 -0.738281 3.890625 -1.09375 C 4.160156 -1.445312 4.300781 -1.953125 4.3125 -2.609375 Z M 4.3125 -3.046875 "/></g></g></g><g fill="#000000" fill-opacity="1"><g transform="translate(200.734638, 120.353602)"><g><path d="M 5.046875 0 L 4.296875 0 L 1.421875 -4.40625 L 1.421875 0 L 0.65625 0 L 0.65625 -5.703125 L 1.421875 -5.703125 L 4.296875 -1.296875 L 4.296875 -5.703125 L 5.046875 -5.703125 Z M 5.046875 0 "/></g></g></g><g fill="#000000" fill-opacity="1"><g transform="translate(207.057757, 120.353602)"><g/></g></g><g fill="#000000" fill-opacity="1"><g transform="translate(209.646412, 120.353602)"><g><path d="M 2.625 -3.0625 L 4.21875 -3.0625 L 4.21875 -2.375 L 2.625 -2.375 L 2.625 -0.578125 L 1.890625 -0.578125 L 1.890625 -2.375 L 0.3125 -2.375 L 0.3125 -3.0625 L 1.890625 -3.0625 L 1.890625 -4.734375 L 2.625 -4.734375 Z M 2.625 -3.0625 "/></g></g></g><g fill="#000000" fill-opacity="1"><g transform="translate(214.797858, 120.353602)"><g/></g></g><g fill="#000000" fill-opacity="1"><g transform="translate(217.386512, 120.353602)"><g><path d="M 2.40625 -2.84375 L 3.890625 -5.703125 L 4.75 -5.703125 L 2.78125 -2.125 L 2.78125 0 L 2.03125 0 L 2.03125 -2.125 L 0.0625 -5.703125 L 0.921875 -5.703125 Z M 2.40625 -2.84375 "/></g></g></g><g fill="#000000" fill-opacity="1"><g transform="translate(222.808344, 120.353602)"><g><path d="M 0.515625 -2.3125 C 0.515625 -2.90625 0.59375 -3.472656 0.75 -4.015625 C 0.914062 -4.554688 1.15625 -5.050781 1.46875 -5.5 C 1.78125 -5.945312 2.101562 -6.257812 2.4375 -6.4375 L 2.59375 -5.96875 C 2.207031 -5.675781 1.890625 -5.226562 1.640625 -4.625 C 1.398438 -4.019531 1.269531 -3.347656 1.25 -2.609375 L 1.25 -2.265625 C 1.25 -1.253906 1.429688 -0.378906 1.796875 0.359375 C 2.023438 0.804688 2.289062 1.15625 2.59375 1.40625 L 2.4375 1.84375 C 2.09375 1.644531 1.765625 1.320312 1.453125 0.875 C 0.828125 -0.0195312 0.515625 -1.082031 0.515625 -2.3125 Z M 0.515625 -2.3125 "/></g></g></g><g fill="#000000" fill-opacity="1"><g transform="translate(226.153297, 120.353602)"><g><path d="M 3.8125 -1.484375 L 1.421875 -1.484375 L 0.890625 0 L 0.109375 0 L 2.296875 -5.703125 L 2.953125 -5.703125 L 5.140625 0 L 4.359375 0 Z M 1.65625 -2.109375 L 3.59375 -2.109375 L 2.625 -4.78125 Z M 1.65625 -2.109375 "/></g></g></g><g fill="#000000" fill-opacity="1"><g transform="translate(231.990505, 120.353602)"><g><path d="M 1.640625 -5.703125 L 3.5 -1.046875 L 5.375 -5.703125 L 6.34375 -5.703125 L 6.34375 0 L 5.59375 0 L 5.59375 -2.21875 L 5.65625 -4.625 L 3.78125 0 L 3.21875 0 L 1.34375 -4.609375 L 1.421875 -2.21875 L 1.421875 0 L 0.65625 0 L 0.65625 -5.703125 Z M 1.640625 -5.703125 "/></g></g></g><g fill="#000000" fill-opacity="1"><g transform="translate(239.598939, 120.353602)"><g><path d="M 2.21875 -2.28125 C 2.21875 -1.695312 2.140625 -1.132812 1.984375 -0.59375 C 1.835938 -0.0625 1.601562 0.425781 1.28125 0.875 C 0.96875 1.332031 0.640625 1.65625 0.296875 1.84375 L 0.15625 1.40625 C 0.550781 1.09375 0.867188 0.613281 1.109375 -0.03125 C 1.359375 -0.6875 1.488281 -1.410156 1.5 -2.203125 L 1.5 -2.328125 C 1.5 -2.878906 1.441406 -3.390625 1.328125 -3.859375 C 1.210938 -4.328125 1.050781 -4.75 0.84375 -5.125 C 0.632812 -5.5 0.40625 -5.789062 0.15625 -6 L 0.296875 -6.4375 C 0.640625 -6.25 0.96875 -5.929688 1.28125 -5.484375 C 1.59375 -5.035156 1.828125 -4.539062 1.984375 -4 C 2.140625 -3.46875 2.21875 -2.894531 2.21875 -2.28125 Z M 2.21875 -2.28125 "/></g></g></g><g fill="#000000" fill-opacity="1"><g transform="translate(242.990915, 120.353602)"><g><path d="M 1.421875 -0.609375 L 4.125 -0.609375 L 4.125 0 L 0.65625 0 L 0.65625 -5.703125 L 1.421875 -5.703125 Z M 1.421875 -0.609375 "/></g></g></g><g fill="#000000" fill-opacity="1"><g transform="translate(247.911161, 120.353602)"><g/></g></g><g fill="#000000" fill-opacity="1"><g transform="translate(250.499815, 120.353602)"><g><path d="M 0.03125 -6.53125 L 1.515625 -6.53125 L 1.515625 1.21875 L 0.03125 1.21875 L 0.03125 0.625 L 0.796875 0.625 L 0.796875 -5.921875 L 0.03125 -5.921875 Z M 0.03125 -6.53125 "/></g></g></g></svg>