<svg xmlns="http://www.w3.org/2000/svg" data-name="Layer 1" viewBox="0 0 64 64"><path fill="#ced8da" stroke="#5f363a" stroke-linecap="round" stroke-linejoin="round" stroke-width="3" d="M50.49,21.65l-3-4.46h-31l-3,4.46a6,6,0,0,0-1,3.34V53.7a6,6,0,0,0,6,6h27a6,6,0,0,0,6-6V25A6,6,0,0,0,50.49,21.65Z"/><rect width="31.06" height="5.6" x="16.47" y="11.58" fill="#ced8da" stroke="#5f363a" stroke-linecap="round" stroke-linejoin="round" stroke-width="3" transform="rotate(-180 32 14.385)"/><rect width="36" height="7.29" x="14" y="4.3" fill="#fffaf0" stroke="#5f363a" stroke-linecap="round" stroke-linejoin="round" stroke-width="3" rx="2" transform="rotate(-180 32 7.94)"/><path fill="#ec6d5e" stroke="#5f363a" stroke-linecap="round" stroke-linejoin="round" stroke-width="3" d="M12.5,30.88h39a0,0,0,0,1,0,0V53.7a6,6,0,0,1-6,6h-27a6,6,0,0,1-6-6V30.88A0,0,0,0,1,12.5,30.88Z"/><path fill="#f9c290" stroke="#5f363a" stroke-linecap="round" stroke-linejoin="round" stroke-width="3" d="M14.5,25.39H35a0,0,0,0,1,0,0V51.5a0,0,0,0,1,0,0H14.5a2,2,0,0,1-2-2V27.39a2,2,0,0,1,2-2Z" transform="rotate(-180 23.75 38.445)"/></svg>