<?xml version="1.0" encoding="UTF-8" standalone="no"?>
<svg
   width="132.01373"
   zoomAndPan="magnify"
   viewBox="0 0 99.0103 137.26019"
   height="183.01358"
   preserveAspectRatio="xMidYMid"
   version="1.0"
   id="svg102"
   sodipodi:docname="Jam.svg"
   inkscape:version="1.2.1 (9c6d41e410, 2022-07-14)"
   xmlns:inkscape="http://www.inkscape.org/namespaces/inkscape"
   xmlns:sodipodi="http://sodipodi.sourceforge.net/DTD/sodipodi-0.dtd"
   xmlns="http://www.w3.org/2000/svg"
   xmlns:svg="http://www.w3.org/2000/svg">
  <sodipodi:namedview
     id="namedview104"
     pagecolor="#505050"
     bordercolor="#ffffff"
     borderopacity="1"
     inkscape:showpageshadow="0"
     inkscape:pageopacity="0"
     inkscape:pagecheckerboard="1"
     inkscape:deskcolor="#505050"
     showgrid="false"
     inkscape:zoom="3.3868234"
     inkscape:cx="72.486802"
     inkscape:cy="25.097263"
     inkscape:window-width="3790"
     inkscape:window-height="2041"
     inkscape:window-x="1465"
     inkscape:window-y="94"
     inkscape:window-maximized="1"
     inkscape:current-layer="svg102" />
  <defs
     id="defs78">
    <clipPath
       id="id1">
      <path
         d="m 162.20312,136.10547 h 50.25 v 50.25 h -50.25 z m 0,0"
         clip-rule="nonzero"
         id="path69" />
    </clipPath>
    <clipPath
       id="id2">
      <path
         d="m 153,143 h 26 v 26.62109 h -26 z m 0,0"
         clip-rule="nonzero"
         id="path72" />
    </clipPath>
    <clipPath
       id="id3">
      <path
         d="m 151.03125,131.37109 h 32.25 V 155 h -32.25 z m 0,0"
         clip-rule="nonzero"
         id="path75" />
    </clipPath>
  </defs>
  <g
     id="g5328"
     transform="scale(1.0055781,1.0026425)">
    <g
       clip-path="url(#id1)"
       id="g82"
       transform="translate(-138.25769,-67.644537)">
      <path
         fill="#465152"
         d="m 212.45312,161.23047 c 0,0.82422 -0.0391,1.64453 -0.12109,2.46484 -0.082,0.81641 -0.20312,1.63281 -0.36328,2.4375 -0.16016,0.8086 -0.35938,1.60547 -0.59766,2.39063 -0.23828,0.78906 -0.51562,1.5625 -0.83203,2.32422 -0.3125,0.75781 -0.66406,1.5039 -1.05469,2.22656 -0.38671,0.72656 -0.80859,1.43359 -1.26562,2.11719 -0.45703,0.68359 -0.94531,1.34375 -1.46875,1.98046 -0.52344,0.63672 -1.07422,1.24219 -1.65625,1.82422 -0.58203,0.58203 -1.19141,1.13672 -1.82813,1.65625 -0.63671,0.52344 -1.29687,1.01172 -1.98046,1.46875 -0.6836,0.45703 -1.38672,0.88282 -2.11329,1.26953 -0.72656,0.38672 -1.46875,0.73829 -2.23046,1.05469 -0.75782,0.3125 -1.53125,0.58985 -2.32032,0.82813 -0.78906,0.23828 -1.58593,0.4414 -2.39062,0.60156 -0.8086,0.16016 -1.6211,0.28125 -2.44141,0.35937 -0.8164,0.082 -1.63672,0.1211 -2.46094,0.1211 -0.82421,0 -1.64453,-0.0391 -2.46484,-0.1211 -0.81641,-0.0781 -1.62891,-0.19921 -2.4375,-0.35937 -0.80859,-0.16016 -1.60547,-0.36328 -2.39062,-0.60156 -0.78907,-0.23828 -1.5625,-0.51563 -2.32422,-0.82813 -0.75782,-0.3164 -1.5,-0.66797 -2.22657,-1.05469 -0.72656,-0.38671 -1.42968,-0.8125 -2.11718,-1.26953 -0.6836,-0.45703 -1.34375,-0.94531 -1.98047,-1.46875 -0.63281,-0.51953 -1.24219,-1.07422 -1.82422,-1.65625 -0.58203,-0.58203 -1.13281,-1.1875 -1.65625,-1.82422 -0.52344,-0.63671 -1.01172,-1.29687 -1.46875,-1.98046 -0.45703,-0.6836 -0.87891,-1.39063 -1.26953,-2.11719 -0.38672,-0.72266 -0.73828,-1.46875 -1.05469,-2.22656 -0.3125,-0.76172 -0.58984,-1.53516 -0.82812,-2.32422 -0.23829,-0.78516 -0.4375,-1.58203 -0.60157,-2.39063 -0.16015,-0.80469 -0.27734,-1.62109 -0.35937,-2.4375 -0.082,-0.82031 -0.1211,-1.64062 -0.1211,-2.46484 0,-0.82031 0.0391,-1.64453 0.1211,-2.46094 0.082,-0.82031 0.19922,-1.63281 0.35937,-2.44141 0.16407,-0.80468 0.36328,-1.60156 0.60157,-2.39062 0.23828,-0.78516 0.51562,-1.5625 0.82812,-2.32031 0.31641,-0.76172 0.66797,-1.50391 1.05469,-2.23047 0.39062,-0.72656 0.8125,-1.42969 1.26953,-2.11328 0.45703,-0.6836 0.94531,-1.34375 1.46875,-1.98047 0.52344,-0.63672 1.07422,-1.2461 1.65625,-1.82813 0.58203,-0.58203 1.19141,-1.13281 1.82422,-1.65625 0.63672,-0.51953 1.29687,-1.01172 1.98047,-1.46875 0.6875,-0.45703 1.39062,-0.8789 2.11718,-1.26562 0.72657,-0.39063 1.46875,-0.73828 2.22657,-1.05469 0.76172,-0.31641 1.53515,-0.59375 2.32422,-0.83203 0.78515,-0.23828 1.58203,-0.4375 2.39062,-0.59766 0.80859,-0.16015 1.62109,-0.28125 2.4375,-0.36328 0.82031,-0.0781 1.64063,-0.12109 2.46484,-0.12109 0.82422,0 1.64454,0.043 2.46094,0.12109 0.82031,0.082 1.63281,0.20313 2.44141,0.36328 0.80469,0.16016 1.60156,0.35938 2.39062,0.59766 0.78907,0.23828 1.5625,0.51562 2.32032,0.83203 0.76171,0.31641 1.5039,0.66406 2.23046,1.05469 0.72657,0.38672 1.42969,0.80859 2.11329,1.26562 0.68359,0.45703 1.34375,0.94922 1.98046,1.46875 0.63672,0.52344 1.2461,1.07422 1.82813,1.65625 0.58203,0.58203 1.13281,1.19141 1.65625,1.82813 0.52344,0.63672 1.01172,1.29687 1.46875,1.98047 0.45703,0.68359 0.87891,1.38672 1.26562,2.11328 0.39063,0.72656 0.74219,1.46875 1.05469,2.23047 0.31641,0.75781 0.59375,1.53515 0.83203,2.32031 0.23828,0.78906 0.4375,1.58594 0.59766,2.39062 0.16016,0.8086 0.28125,1.6211 0.36328,2.44141 0.082,0.81641 0.12109,1.64063 0.12109,2.46094 z m 0,0"
         fill-opacity="1"
         fill-rule="nonzero"
         id="path80" />
    </g>
    <path
       stroke-linecap="round"
       fill-opacity="1"
       fill="#ced8da"
       fill-rule="nonzero"
       stroke-linejoin="round"
       d="m 92.578257,44.203123 -7.03125,-10.45313 h -72.65626 l -7.0312498,10.45313 c -1.57422,2.375 -2.35547,4.98438 -2.34375,7.82813 v 67.289057 c 0,0.92578 0.0898,1.83985 0.26953,2.7461 0.1797,0.90234 0.44922,1.78515 0.80079,2.63671 0.35156,0.85157 0.78515,1.66407 1.30078,2.42969 0.51171,0.76953 1.09375,1.48047 1.74609,2.13282 0.65625,0.65234 1.36328,1.23437 2.13281,1.75 0.7656298,0.51171 1.5781298,0.94531 2.4296898,1.29687 0.85547,0.35547 1.73438,0.62109 2.64062,0.80078 0.90626,0.1797 1.82032,0.26953 2.74219,0.26953 h 63.28126 c 0.92187,0 1.83594,-0.0898 2.74218,-0.26953 0.90626,-0.17969 1.78516,-0.44531 2.64063,-0.80078 0.85156,-0.35156 1.66406,-0.78516 2.42969,-1.29687 0.76953,-0.51563 1.47656,-1.09766 2.13281,-1.75 0.65234,-0.65235 1.23438,-1.36329 1.74609,-2.13282 0.51563,-0.76562 0.94532,-1.57812 1.30079,-2.42969 0.35156,-0.85156 0.62109,-1.73437 0.80078,-2.63671 0.17969,-0.90625 0.26953,-1.82032 0.26953,-2.7461 V 52.054683 c 0.0157,-2.85547 -0.76563,-5.47265 -2.34375,-7.85156 z m 0,0"
       stroke="#5f363a"
       stroke-width="7.03125"
       stroke-opacity="1"
       stroke-miterlimit="4"
       id="path84" />
    <path
       stroke-linecap="round"
       fill-opacity="1"
       fill="#ced8da"
       fill-rule="nonzero"
       stroke-linejoin="round"
       d="M 85.640747,33.749993 H 12.843867 V 20.624988 h 72.79688 z m 0,0"
       stroke="#5f363a"
       stroke-width="7.03125"
       stroke-opacity="1"
       stroke-miterlimit="4"
       id="path86" />
    <path
       stroke-linecap="round"
       fill-opacity="1"
       fill="#fffaf0"
       fill-rule="nonzero"
       stroke-linejoin="round"
       d="m 86.742307,20.601556 h -75.00001 c -0.30859,0 -0.61327,-0.02734 -0.91406,-0.08984 -0.30078,-0.05859 -0.59375,-0.148437 -0.8788998,-0.265624 -0.28516,-0.11719 -0.55469,-0.26172 -0.8125,-0.433596 -0.25391,-0.171874 -0.49219,-0.363281 -0.71094,-0.582031 -0.21485,-0.218749 -0.41016,-0.457031 -0.58203,-0.710936 -0.17187,-0.257813 -0.3125,-0.527344 -0.4336,-0.808594 -0.11718,-0.285157 -0.20702,-0.578126 -0.26562,-0.882813 -0.0586,-0.300781 -0.0898,-0.605468 -0.0898,-0.914063 V 8.203122 c 0,-0.304688 0.0312,-0.613282 0.0898,-0.914063 0.0586,-0.300783 0.14843,-0.593751 0.26562,-0.878906 0.12111,-0.285157 0.26172,-0.554688 0.4336,-0.808594 0.17187,-0.257812 0.36719,-0.496094 0.58203,-0.710939 0.21874,-0.218742 0.45703,-0.414061 0.71094,-0.58203 0.25781,-0.171868 0.52734,-0.316407 0.8125,-0.433594 0.2851498,-0.121102 0.5781198,-0.207024 0.8788998,-0.269531 0.30079,-0.05859 0.60547,-0.08984 0.91406,-0.08984 h 75.00001 c 0.30859,0 0.61328,0.03124 0.91406,0.08984 0.30078,0.06251 0.59375,0.148429 0.87891,0.269531 0.28516,0.117187 0.55469,0.261719 0.8125,0.433594 0.2539,0.167976 0.49219,0.363281 0.71094,0.58203 0.21485,0.214852 0.41015,0.453127 0.58203,0.710939 0.17187,0.253906 0.3164,0.523437 0.43359,0.808594 0.11719,0.285155 0.20703,0.578123 0.26563,0.878906 0.0586,0.300781 0.0898,0.609375 0.0898,0.914063 v 7.710937 c 0,0.308595 -0.0312,0.613282 -0.0898,0.914063 -0.0586,0.304687 -0.14843,0.597656 -0.26563,0.882813 -0.11719,0.28125 -0.26172,0.550781 -0.43359,0.808594 -0.17187,0.253905 -0.36719,0.492187 -0.58203,0.710936 -0.21875,0.21875 -0.45704,0.410157 -0.71094,0.582031 -0.25781,0.171876 -0.52734,0.316406 -0.8125,0.433596 -0.28516,0.117187 -0.57813,0.20703 -0.87891,0.265624 -0.30078,0.0625 -0.60547,0.08984 -0.91406,0.08984 z m 0,0"
       stroke="#5f363a"
       stroke-width="7.03125"
       stroke-opacity="1"
       stroke-miterlimit="4"
       id="path88" />
    <path
       stroke-linecap="round"
       fill-opacity="1"
       fill="#ec6d5e"
       fill-rule="nonzero"
       stroke-linejoin="round"
       d="M 3.5391872,65.835933 H 94.945447 v 53.484377 c 0,0.92578 -0.0898,1.83985 -0.26953,2.7461 -0.1797,0.90234 -0.44922,1.78515 -0.80079,2.63671 -0.35156,0.85157 -0.78515,1.66407 -1.30078,2.42969 -0.51172,0.76953 -1.09375,1.48047 -1.74609,2.13282 -0.65625,0.65234 -1.36328,1.23437 -2.13281,1.75 -0.76563,0.51171 -1.57813,0.94531 -2.42969,1.29687 -0.85547,0.35547 -1.73438,0.62109 -2.64063,0.80078 -0.90625,0.1797 -1.82031,0.26953 -2.74219,0.26953 h -63.28125 c -0.92187,0 -1.83594,-0.0898 -2.74219,-0.26953 -0.90625,-0.17969 -1.78515,-0.44531 -2.64062,-0.80078 -0.85157,-0.35156 -1.66406,-0.78516 -2.4296898,-1.29687 -0.76953,-0.51563 -1.47656,-1.09766 -2.13281,-1.75 -0.65235,-0.65235 -1.23438,-1.36329 -1.7461,-2.13282 -0.51562,-0.76562 -0.94921,-1.57812 -1.30078,-2.42969 -0.35156,-0.85156 -0.62109,-1.73437 -0.80078,-2.63671 -0.17969,-0.90625 -0.26953,-1.82032 -0.26953,-2.7461 z m 0,0"
       stroke="#5f363a"
       stroke-width="7.03125"
       stroke-opacity="1"
       stroke-miterlimit="4"
       id="path90" />
    <path
       stroke-linecap="round"
       fill-opacity="1"
       fill="#f9c290"
       fill-rule="nonzero"
       stroke-linejoin="round"
       d="M 51.586047,114.16405 H 3.5391672 V 52.968743 H 51.586047 c 0.3086,0 0.61328,0.0312 0.91406,0.0898 0.30079,0.0625 0.59376,0.14843 0.87891,0.26953 0.28516,0.11719 0.55469,0.26172 0.8125,0.4336 0.25391,0.16797 0.49219,0.36328 0.71094,0.58203 0.21485,0.21485 0.41015,0.45312 0.58203,0.71093 0.17187,0.25391 0.31641,0.52344 0.43359,0.8086 0.11719,0.28515 0.20703,0.57812 0.26563,0.8789 0.0586,0.30079 0.0898,0.60938 0.0898,0.91407 v 51.820317 c 0,0.30859 -0.0312,0.61328 -0.0898,0.91407 -0.0586,0.30468 -0.14843,0.59765 -0.26563,0.88281 -0.11718,0.28125 -0.26171,0.55078 -0.43359,0.80859 -0.17187,0.25391 -0.36719,0.49219 -0.58203,0.71094 -0.21874,0.21874 -0.45703,0.41016 -0.71094,0.58203 -0.25781,0.17187 -0.52734,0.31641 -0.8125,0.43359 -0.28515,0.11719 -0.57812,0.20703 -0.87891,0.26563 -0.30078,0.0625 -0.60546,0.0898 -0.91406,0.0898 z m 0,0"
       stroke="#5f363a"
       stroke-width="7.03125"
       stroke-opacity="1"
       stroke-miterlimit="4"
       id="path92" />
    <g
       clip-path="url(#id2)"
       id="g96"
       style="fill:#ec6d5e;fill-opacity:1"
       transform="translate(-138.25769,-67.644537)">
      <path
         fill="#e6333a"
         d="m 168.63672,144.17187 c -9.3711,-2.17968 -16.09375,0.72266 -15.00391,9.07813 1.09375,8.35547 4.39453,16.12109 8.29688,16.24609 3.90625,0.125 16.96093,-5.37109 16.96093,-16.0039 0,-10.63672 -7.6875,-8.72266 -10.2539,-9.32032 z m 0,0"
         fill-opacity="1"
         fill-rule="nonzero"
         id="path94"
         style="fill:#ec6d5e;fill-opacity:1" />
    </g>
    <g
       clip-path="url(#id3)"
       id="g100"
       transform="translate(-138.25769,-67.644537)">
      <path
         fill="#87cb6b"
         d="m 162.13281,147.69922 c 0,0 -6.71484,1.25781 -11.0664,-5.52344 0,0 5.22265,-4.83594 10.52734,-1.54687 0,0 -4.10156,-3.44141 -2.04688,-9.25782 0,0 5.38672,0.90235 7.6875,7.54688 0,0 2.50391,-3.49219 4.06641,-2.90625 1.56641,0.58984 1.17578,5.20312 0.21094,6.12109 0,0 8.6875,-1.64062 11.73437,4.96875 0,0 -6.73828,6.6211 -14.41015,1.78516 0,0 -2.84766,6.97265 -5.78516,5.69922 -2.9375,-1.27344 -0.91797,-6.88672 -0.91797,-6.88672 z m 0,0"
         fill-opacity="1"
         fill-rule="nonzero"
         id="path98" />
    </g>
  </g>
</svg>
